<svg width="32" height="32" viewBox="0 0 32 32" fill="none" xmlns="http://www.w3.org/2000/svg">
<path d="M23.1708 11.3905L19.1095 7.32925C18.8981 7.11925 18.6125 7.00096 18.3145 7H9.625C9.32663 7 9.04048 7.11853 8.8295 7.3295C8.61853 7.54048 8.5 7.82663 8.5 8.125V23.875C8.5 24.1734 8.61853 24.4595 8.8295 24.6705C9.04048 24.8815 9.32663 25 9.625 25H23.125C23.2245 25 23.3198 24.9605 23.3902 24.8902C23.4605 24.8198 23.5 24.7245 23.5 24.625V12.1855C23.5004 12.0378 23.4715 11.8915 23.415 11.755C23.3584 11.6186 23.2754 11.4947 23.1708 11.3905ZM20.875 18.0625C21.0242 18.0625 21.1673 18.1218 21.2727 18.2273C21.3782 18.3327 21.4375 18.4758 21.4375 18.625C21.4375 18.7742 21.3782 18.9173 21.2727 19.0227C21.1673 19.1282 21.0242 19.1875 20.875 19.1875H11.125C10.9758 19.1875 10.8327 19.1282 10.7273 19.0227C10.6218 18.9173 10.5625 18.7742 10.5625 18.625C10.5625 18.4758 10.6218 18.3327 10.7273 18.2273C10.8327 18.1218 10.9758 18.0625 11.125 18.0625H20.875ZM10.5625 15.25C10.5625 15.1008 10.6218 14.9577 10.7273 14.8523C10.8327 14.7468 10.9758 14.6875 11.125 14.6875H20.875C21.0242 14.6875 21.1673 14.7468 21.2727 14.8523C21.3782 14.9577 21.4375 15.1008 21.4375 15.25C21.4375 15.3992 21.3782 15.5423 21.2727 15.6477C21.1673 15.7532 21.0242 15.8125 20.875 15.8125H11.125C10.9758 15.8125 10.8327 15.7532 10.7273 15.6477C10.6218 15.5423 10.5625 15.3992 10.5625 15.25ZM20.875 21.4375C21.0242 21.4375 21.1673 21.4968 21.2727 21.6023C21.3782 21.7077 21.4375 21.8508 21.4375 22C21.4375 22.1492 21.3782 22.2923 21.2727 22.3977C21.1673 22.5032 21.0242 22.5625 20.875 22.5625H11.125C10.9758 22.5625 10.8327 22.5032 10.7273 22.3977C10.6218 22.2923 10.5625 22.1492 10.5625 22C10.5625 21.8508 10.6218 21.7077 10.7273 21.6023C10.8327 21.4968 10.9758 21.4375 11.125 21.4375H20.875Z" fill="#2B2D42"/>
</svg>
