<svg width="32" height="32" viewBox="0 0 32 32" fill="none" xmlns="http://www.w3.org/2000/svg">
<path d="M23.625 8.375H21.4479C21.3954 8.375 21.3451 8.35415 21.308 8.31703C21.2708 8.27992 21.25 8.22957 21.25 8.17708V6.79167C21.25 6.5817 21.1666 6.38034 21.0181 6.23187C20.8697 6.08341 20.6683 6 20.4583 6C20.2484 6 20.047 6.08341 19.8985 6.23187C19.7501 6.38034 19.6667 6.5817 19.6667 6.79167V10.5521C19.6667 10.7096 19.6041 10.8606 19.4928 10.9719C19.3814 11.0833 19.2304 11.1458 19.0729 11.1458C18.9154 11.1458 18.7644 11.0833 18.6531 10.9719C18.5417 10.8606 18.4792 10.7096 18.4792 10.5521V8.77083C18.4792 8.66585 18.4375 8.56517 18.3632 8.49094C18.289 8.4167 18.1883 8.375 18.0833 8.375H13.1354C13.0831 8.375 13.0328 8.35426 12.9957 8.31731C12.9587 8.28037 12.9377 8.23023 12.9375 8.17788V6.79167C12.9375 6.5817 12.8541 6.38034 12.7056 6.23187C12.5572 6.08341 12.3558 6 12.1458 6C11.9359 6 11.7345 6.08341 11.586 6.23187C11.4376 6.38034 11.3542 6.5817 11.3542 6.79167V10.5521C11.3542 10.7096 11.2916 10.8606 11.1803 10.9719C11.0689 11.0833 10.9179 11.1458 10.7604 11.1458C10.6029 11.1458 10.4519 11.0833 10.3406 10.9719C10.2292 10.8606 10.1667 10.7096 10.1667 10.5521V8.77083C10.1667 8.66585 10.125 8.56517 10.0507 8.49094C9.9765 8.4167 9.87581 8.375 9.77083 8.375H8.58333C8.16341 8.375 7.76068 8.54181 7.46375 8.83875C7.16682 9.13568 7 9.53841 7 9.95833V23.4167C7 23.8366 7.16682 24.2393 7.46375 24.5363C7.76068 24.8332 8.16341 25 8.58333 25H23.625C24.0449 25 24.4476 24.8332 24.7446 24.5363C25.0415 24.2393 25.2083 23.8366 25.2083 23.4167V9.95833C25.2083 9.53841 25.0415 9.13568 24.7446 8.83875C24.4476 8.54181 24.0449 8.375 23.625 8.375ZM23.2292 23.4167H8.97917C8.87418 23.4167 8.7735 23.375 8.69927 23.3007C8.62504 23.2265 8.58333 23.1258 8.58333 23.0208V13.5208C8.58333 13.4159 8.62504 13.3152 8.69927 13.2409C8.7735 13.1667 8.87418 13.125 8.97917 13.125H23.2292C23.3341 13.125 23.4348 13.1667 23.5091 13.2409C23.5833 13.3152 23.625 13.4159 23.625 13.5208V23.0208C23.625 23.1258 23.5833 23.2265 23.5091 23.3007C23.4348 23.375 23.3341 23.4167 23.2292 23.4167Z" fill="#2B2D42"/>
</svg>
