<svg width="32" height="32" viewBox="0 0 32 32" fill="none" xmlns="http://www.w3.org/2000/svg">
<path d="M26.402 10.603C26.3728 10.5905 26.3405 10.5872 26.3093 10.5932C26.2781 10.5993 26.2494 10.6146 26.227 10.6371L17.6984 19.164C17.2472 19.6149 16.6353 19.8683 15.9974 19.8683C15.3594 19.8683 14.7476 19.6149 14.2964 19.164L5.77125 10.6371C5.74895 10.6144 5.72028 10.599 5.68905 10.5929C5.65781 10.5868 5.62545 10.5903 5.59625 10.603C5.56756 10.6153 5.54313 10.6358 5.52602 10.662C5.5089 10.6881 5.49986 10.7187 5.5 10.75V21.25C5.5 21.7141 5.68438 22.1592 6.01256 22.4874C6.34075 22.8156 6.78587 23 7.25 23H24.75C25.2141 23 25.6592 22.8156 25.9874 22.4874C26.3156 22.1592 26.5 21.7141 26.5 21.25V10.75C26.5001 10.7185 26.4909 10.6877 26.4734 10.6615C26.4559 10.6353 26.4311 10.615 26.402 10.603V10.603Z" fill="#2B2D42"/>
<path d="M15.2256 18.2365C15.4309 18.4413 15.7091 18.5562 15.9991 18.5562C16.289 18.5562 16.5672 18.4413 16.7726 18.2365L25.2478 9.76125C25.3052 9.70387 25.3455 9.63167 25.3642 9.55271C25.3829 9.47375 25.3792 9.39114 25.3537 9.31413C25.2574 9.02625 24.9897 9 24.7499 9H7.24993C7.00931 9 6.73981 9.02625 6.64531 9.31413C6.61975 9.39114 6.61612 9.47375 6.63482 9.55271C6.65352 9.63167 6.6938 9.70387 6.75118 9.76125L15.2256 18.2365Z" fill="#2B2D42"/>
</svg>
