<svg width="32" height="32" viewBox="0 0 32 32" fill="none" xmlns="http://www.w3.org/2000/svg">
<path d="M24.3388 19.8975L22.421 17.9789C22.2168 17.7744 21.9743 17.612 21.7073 17.5013C21.4403 17.3906 21.1541 17.3336 20.865 17.3336C20.5759 17.3336 20.2897 17.3906 20.0227 17.5013C19.7557 17.612 19.5132 17.7744 19.309 17.9789L18.9179 18.37C16.9906 16.7551 15.2103 14.9724 13.5979 13.043L13.989 12.6519C14.4008 12.2389 14.632 11.6795 14.632 11.0963C14.632 10.5131 14.4008 9.95363 13.989 9.54063L12.0673 7.62443C11.6478 7.22365 11.0899 7 10.5097 7C9.92952 7 9.37165 7.22365 8.95212 7.62443L7.90408 8.67717C7.40046 9.18441 7.0867 9.8495 7.01549 10.5607C6.94428 11.272 7.11996 11.9861 7.51302 12.5831C10.6377 17.2913 14.6725 21.327 19.3801 24.4525C19.9792 24.842 20.6932 25.0155 21.4042 24.9444C22.1152 24.8733 22.7807 24.5619 23.2907 24.0615L24.3427 23.0087C24.5472 22.8047 24.7095 22.5623 24.8202 22.2954C24.9309 22.0285 24.9879 21.7424 24.9879 21.4535C24.9879 21.1646 24.9309 20.8785 24.8202 20.6116C24.7095 20.3447 24.5472 20.1023 24.3427 19.8983L24.3388 19.8975Z" fill="#2B2D42"/>
</svg>
