<svg width="32" height="32" viewBox="0 0 32 32" fill="none" xmlns="http://www.w3.org/2000/svg">
<path d="M16 6.99976C14.22 6.99976 12.4799 7.5276 10.9999 8.51655C9.51983 9.5055 8.36628 10.9111 7.68509 12.5557C7.0039 14.2002 6.82567 16.0099 7.17294 17.7557C7.5202 19.5016 8.37737 21.1052 9.63604 22.3639C10.8947 23.6226 12.4984 24.4798 14.2442 24.8271C15.99 25.1743 17.7996 24.9961 19.4442 24.3149C21.0887 23.6337 22.4943 22.4801 23.4832 21.0001C24.4722 19.52 25 17.7799 25 15.9999C24.9971 13.6138 24.0479 11.3263 22.3607 9.63907C20.6735 7.95185 18.386 7.00269 16 6.99976ZM20.5318 14.1999L16.5095 19.5639C16.332 19.8038 16.1044 20.0024 15.8427 20.1458C15.5809 20.2892 15.2912 20.3741 14.9934 20.3947C14.9449 20.3947 14.8951 20.3947 14.8466 20.3947C14.5736 20.3945 14.3034 20.3404 14.0513 20.2356C13.7992 20.1309 13.5703 19.9774 13.3775 19.7841L11.3006 17.7071C11.1115 17.5112 11.007 17.2488 11.0095 16.9765C11.012 16.7042 11.1213 16.4438 11.3139 16.2514C11.5066 16.0589 11.7671 15.9498 12.0394 15.9476C12.3117 15.9454 12.5739 16.0502 12.7697 16.2394L14.5697 18.0394C14.6048 18.0745 14.647 18.1017 14.6935 18.119C14.74 18.1364 14.7897 18.1435 14.8392 18.14C14.8887 18.1364 14.9369 18.1223 14.9805 18.0985C15.024 18.0747 15.062 18.0418 15.0917 18.0021L18.8745 12.9578C18.9563 12.8487 19.0588 12.7568 19.1761 12.6873C19.2935 12.6179 19.4234 12.5722 19.5584 12.5529C19.6934 12.5336 19.8309 12.5411 19.963 12.5749C20.0951 12.6088 20.2192 12.6683 20.3283 12.7501C20.4374 12.832 20.5293 12.9345 20.5988 13.0518C20.6683 13.1692 20.714 13.2991 20.7333 13.4341C20.7525 13.5691 20.745 13.7065 20.7112 13.8387C20.6774 13.9708 20.6178 14.0949 20.536 14.204L20.5318 14.1999Z" fill="#2B2D42"/>
</svg>
