<svg width="32" height="32" viewBox="0 0 32 32" fill="none" xmlns="http://www.w3.org/2000/svg">
<path d="M24.3125 6.5H7.6875C7.37256 6.5 7.07051 6.62511 6.84781 6.84781C6.62511 7.07051 6.5 7.37256 6.5 7.6875V17.3854C6.5 17.4379 6.52085 17.4882 6.55797 17.5254C6.59509 17.5625 6.64543 17.5833 6.69792 17.5833H25.3021C25.3546 17.5833 25.4049 17.5625 25.442 17.5254C25.4791 17.4882 25.5 17.4379 25.5 17.3854V7.6875C25.5 7.37256 25.3749 7.07051 25.1522 6.84781C24.9295 6.62511 24.6274 6.5 24.3125 6.5Z" fill="#2B2D42"/>
<path d="M25.3021 18.7708H6.69792C6.64543 18.7708 6.59509 18.7917 6.55797 18.8288C6.52085 18.8659 6.5 18.9163 6.5 18.9688V19.9583C6.5 20.2733 6.62511 20.5753 6.84781 20.798C7.07051 21.0207 7.37256 21.1458 7.6875 21.1458H14.2188C14.2712 21.1458 14.3216 21.1667 14.3587 21.2038C14.3958 21.2409 14.4167 21.2913 14.4167 21.3438V23.072C14.4166 23.1203 14.3989 23.167 14.3668 23.2031C14.3347 23.2393 14.2905 23.2625 14.2425 23.2683C13.2488 23.3754 12.2735 23.6128 11.3418 23.9745C11.1715 24.0434 11.0304 24.1694 10.9428 24.331C10.8552 24.4926 10.8265 24.6796 10.8617 24.8599C10.8969 25.0403 10.9938 25.2028 11.1357 25.3196C11.2776 25.4364 11.4557 25.5002 11.6395 25.5H20.3542C20.5377 25.4999 20.7154 25.4361 20.8571 25.3194C20.9987 25.2027 21.0954 25.0405 21.1307 24.8604C21.1659 24.6803 21.1375 24.4936 21.0503 24.3321C20.9631 24.1707 20.8225 24.0445 20.6526 23.9752C19.7227 23.614 18.7493 23.3765 17.7575 23.2691C17.7095 23.2633 17.6653 23.2401 17.6332 23.2039C17.6011 23.1678 17.5834 23.1211 17.5833 23.0728V21.3445C17.5833 21.2921 17.6042 21.2417 17.6413 21.2046C17.6784 21.1675 17.7288 21.1466 17.7813 21.1466H24.3125C24.4685 21.1466 24.623 21.1159 24.7671 21.0562C24.9112 20.9964 25.0422 20.9089 25.1525 20.7985C25.2627 20.6882 25.3502 20.5572 25.4098 20.413C25.4695 20.2688 25.5001 20.1143 25.5 19.9583V18.9688C25.5 18.9163 25.4791 18.8659 25.442 18.8288C25.4049 18.7917 25.3546 18.7708 25.3021 18.7708Z" fill="#2B2D42"/>
</svg>
