<svg width="48" height="48" viewBox="0 0 48 48" fill="none" xmlns="http://www.w3.org/2000/svg">
<path d="M2.85853 4.26614C1.10456 6.69763 0.909046 10.1178 0.518009 16.9583L0.0160934 25.7383C-0.30135 31.2913 4.11797 35.9685 9.6823 35.9685H14.239C10.8371 30.9312 8.90718 27.8097 7.59834 24.661C7.24352 23.8074 7.14469 22.8764 7.29876 21.9779C7.88583 18.5545 8.84867 15.9796 10.5404 12.9781C11.3143 11.605 12.7408 10.8959 14.1771 10.9381C14.3106 10.6596 14.4755 10.3909 14.6726 10.137L18.084 5.7406C19.578 3.81532 22.3504 3.46518 24.2765 4.95853C25.0452 5.55456 25.5629 6.35418 25.8125 7.22233C27.3695 5.8162 29.7571 5.68347 31.473 7.01387C32.8126 8.0525 33.3899 9.70932 33.1147 11.2697C34.2543 11.1092 35.4551 11.3915 36.4362 12.1522C38.0633 13.4138 38.5659 15.5874 37.782 17.3925C38.7141 17.4007 39.6512 17.7031 40.4446 18.3183C42.3707 19.8116 42.7209 22.5829 41.227 24.5082L38.4728 28.0575C38.5274 28.4481 38.523 28.8321 38.4747 29.2054C38.3854 29.8961 38.1451 30.532 37.9512 31.0171C37.8876 31.1763 37.8268 31.3245 37.7679 31.468C37.6237 31.8195 37.4912 32.1426 37.3576 32.529C37.336 32.5915 37.3114 32.6529 37.2839 32.713C36.7185 33.9481 35.9662 35.0039 35.1751 35.9304C39.3281 35.8293 41.8602 35.4602 43.7875 34.1124C44.9343 33.3105 45.9051 32.283 46.6406 31.0928C48.343 28.3381 48.1262 24.5449 47.6925 16.9583C47.3015 10.1179 47.1059 6.69763 45.352 4.26614C44.5912 3.2115 43.6371 2.31075 42.5404 1.61169C40.0118 0 36.5847 0 29.7304 0H18.4801C11.6258 0 8.19868 0 5.67011 1.61169C4.57337 2.31075 3.6193 3.2115 2.85853 4.26614Z" fill="#2B2D42"/>
<path d="M32.3299 35.9685H16.7331C18.7998 39.2806 22.7296 41.7248 30.4357 47.8191C31.0516 48.3062 31.9586 47.7379 31.8121 46.9666C31.0797 43.1093 31.2211 40.3454 32.3299 35.9685Z" fill="#2B2D42"/>
<path d="M23.4342 9.8888C24.2321 8.86047 24.045 7.38023 23.0163 6.5826C21.9876 5.78497 20.5067 5.97199 19.7088 7.00032L16.2973 11.3967C16.2634 11.4404 16.2313 11.4849 16.2009 11.5302L20.4329 13.7566L23.4342 9.8888Z" fill="#2B2D42"/>
<path d="M26.0672 17.8252C25.6904 17.0503 25.0783 16.3338 24.2177 15.7603C24.1586 15.7209 24.0976 15.6847 24.0348 15.6516L22.4387 14.8119L26.9053 9.05566C27.7033 8.02733 29.1841 7.84031 30.2129 8.63794C31.2416 9.43557 31.4287 10.9158 30.6308 11.9441L26.0672 17.8252Z" fill="#2B2D42"/>
<path d="M25.1546 23.0085C25.4226 22.7529 25.6556 22.4657 25.8488 22.1566C25.9744 21.9558 26.0829 21.7471 26.174 21.5327L31.8686 14.194C32.6665 13.1657 34.1473 12.9787 35.1761 13.7763C36.2048 14.5739 36.3919 16.0542 35.594 17.0825L30.7856 23.2791C30.4333 23.2921 30.0792 23.3249 29.7215 23.3777C28.4341 23.5677 27.1744 24.008 25.8626 24.5983C25.5957 24.2737 25.3091 23.9719 25.0035 23.6887C25.0196 23.4583 25.0696 23.2289 25.1546 23.0085Z" fill="#2B2D42"/>
<path d="M37.5281 25.9216C37.2194 25.5263 36.8527 25.162 36.4483 24.8181C36.1306 24.5478 35.7783 24.3411 35.4172 24.1941C34.728 23.9135 34.0621 23.6958 33.4073 23.5427L35.8769 20.3601C36.6749 19.3317 38.1557 19.1447 39.1845 19.9423C40.2132 20.74 40.4003 22.2202 39.6023 23.2485L37.5281 25.9216Z" fill="#2B2D42"/>
<path d="M9.49706 23.8723C10.8902 27.2238 13.0536 30.5948 17.4227 36.9962H31.3018C32.8439 35.4547 34.4505 33.9628 35.4141 31.8578C36.2506 29.4376 37.4007 28.3267 35.1159 26.3835C34.9748 26.2635 34.8132 26.1675 34.6416 26.0976C31.1914 24.693 28.942 25.2927 25.1333 27.2333C23.5912 24.1503 20.5069 23.1226 14.3384 20.5534L15.3665 19.0119L20.5069 21.5811C23.5912 23.6365 26.1614 19.5258 23.0771 17.4704L15.0117 13.2272C14.0542 12.7234 12.8629 13.0446 12.3318 13.9869C10.7462 16.8001 9.86936 19.1526 9.32532 22.3252C9.23585 22.8469 9.29389 23.3836 9.49706 23.8723Z" fill="#2B2D42"/>
</svg>
